M48
; DRILL file {KiCad 8.99.0-unknown-ac73616e7c~181~ubuntu24.04.1} date 2024-12-23T20:21:58-0500
; FORMAT={-:-/ absolute / inch / decimal}
; #@! TF.CreationDate,2024-12-23T20:21:58-05:00
; #@! TF.GenerationSoftware,Kicad,Pcbnew,8.99.0-unknown-ac73616e7c~181~ubuntu24.04.1
; #@! TF.FileFunction,Plated,1,2,PTH
FMAT,2
INCH
; #@! TA.AperFunction,Plated,PTH,ComponentDrill
T1C0.0256
; #@! TA.AperFunction,Plated,PTH,ComponentDrill
T2C0.0276
; #@! TA.AperFunction,Plated,PTH,ComponentDrill
T3C0.0315
%
G90
G05
T1
X6.0059Y-4.3644
X6.0059Y-4.4144
X6.0559Y-4.3644
X6.0559Y-4.4144
X6.1059Y-4.3644
X6.1059Y-4.4144
X6.1559Y-4.3644
X6.1559Y-4.4144
X6.2059Y-4.3644
X6.2059Y-4.4144
T2
X6.0384Y-4.1713
X6.061Y-4.2146
X6.0837Y-4.1713
X6.0846Y-3.7313
X6.0846Y-3.7766
X6.0846Y-3.8219
X6.0846Y-3.8671
X6.1063Y-4.2146
X6.128Y-3.7539
X6.128Y-3.7992
X6.128Y-3.8445
X6.1289Y-4.1713
X6.1516Y-4.2146
X6.1742Y-4.1713
T3
X6.0079Y-4.2146
X6.128Y-3.7008
X6.128Y-3.8976
X6.2047Y-4.2146
M30
