M48
; DRILL file {KiCad 8.99.0-unknown-ac73616e7c~181~ubuntu24.04.1} date 2024-12-23T20:21:58-0500
; FORMAT={-:-/ absolute / inch / decimal}
; #@! TF.CreationDate,2024-12-23T20:21:58-05:00
; #@! TF.GenerationSoftware,Kicad,Pcbnew,8.99.0-unknown-ac73616e7c~181~ubuntu24.04.1
; #@! TF.FileFunction,NonPlated,1,2,NPTH
FMAT,2
INCH
; #@! TA.AperFunction,NonPlated,NPTH,ComponentDrill
T1C0.0197
; #@! TA.AperFunction,NonPlated,NPTH,ComponentDrill
T2C0.0394
%
G90
G05
T1
X5.9075Y-4.2185
X5.9075Y-4.2476
X5.9075Y-4.2768
X5.9075Y-4.3059
X5.9075Y-4.335
X5.9075Y-4.3642
X6.0059Y-3.7303
X6.0059Y-3.7594
X6.0059Y-3.7886
X6.0059Y-3.8177
X6.0059Y-3.8469
X6.0059Y-3.876
X6.2067Y-3.7303
X6.2067Y-3.7594
X6.2067Y-3.7886
X6.2067Y-3.8177
X6.2067Y-3.8469
X6.2067Y-3.876
X6.3051Y-4.2185
X6.3051Y-4.2476
X6.3051Y-4.2768
X6.3051Y-4.3059
X6.3051Y-4.335
X6.3051Y-4.3642
T2
X5.7894Y-3.7008
X5.7894Y-3.8976
X6.4232Y-3.7008
X6.4232Y-3.8976
M30
