%TF.GenerationSoftware,KiCad,Pcbnew,8.99.0-unknown-ac73616e7c~181~ubuntu24.04.1*%
%TF.CreationDate,2024-12-23T20:21:58-05:00*%
%TF.ProjectId,EZConnect,455a436f-6e6e-4656-9374-2e6b69636164,rev?*%
%TF.SameCoordinates,Original*%
%TF.FileFunction,Copper,L2,Bot*%
%TF.FilePolarity,Positive*%
%FSLAX46Y46*%
G04 Gerber Fmt 4.6, Leading zero omitted, Abs format (unit mm)*
G04 Created by KiCad (PCBNEW 8.99.0-unknown-ac73616e7c~181~ubuntu24.04.1) date 2024-12-23 20:21:58*
%MOMM*%
%LPD*%
G01*
G04 APERTURE LIST*
%TA.AperFunction,ComponentPad*%
%ADD10C,1.000000*%
%TD*%
%TA.AperFunction,ComponentPad*%
%ADD11C,1.100000*%
%TD*%
%TA.AperFunction,ComponentPad*%
%ADD12R,1.000000X1.000000*%
%TD*%
%TA.AperFunction,ComponentPad*%
%ADD13O,1.000000X1.000000*%
%TD*%
%TA.AperFunction,Conductor*%
%ADD14C,0.200000*%
%TD*%
G04 APERTURE END LIST*
D10*
%TO.P,J2,1,Pin_1*%
%TO.N,Net-(J2-Pin_1)*%
X153375000Y-105950000D03*
%TO.P,J2,2,Pin_2*%
%TO.N,/RX*%
X154525000Y-105950000D03*
%TO.P,J2,3,Pin_3*%
%TO.N,/TX*%
X155675000Y-105950000D03*
%TO.P,J2,4,Pin_4*%
%TO.N,/GND*%
X156825000Y-105950000D03*
%TO.P,J2,5,Pin_5*%
%TO.N,/SWDIO*%
X153950000Y-107050000D03*
%TO.P,J2,6,Pin_6*%
%TO.N,/SWCLK*%
X155100000Y-107050000D03*
%TO.P,J2,7,Pin_7*%
%TO.N,/~{RESET}*%
X156250000Y-107050000D03*
D11*
%TO.P,J2,MP,MountPin*%
%TO.N,/GND*%
X152600000Y-107050000D03*
X157600000Y-107050000D03*
%TD*%
D10*
%TO.P,J1,1,Pin_1*%
%TO.N,unconnected-(J1-Pin_1-Pad1)*%
X154550000Y-98225000D03*
%TO.P,J1,2,Pin_2*%
%TO.N,unconnected-(J1-Pin_2-Pad2)*%
X154550000Y-97075000D03*
%TO.P,J1,3,Pin_3*%
%TO.N,unconnected-(J1-Pin_3-Pad3)*%
X154550000Y-95925000D03*
%TO.P,J1,4,Pin_4*%
%TO.N,unconnected-(J1-Pin_4-Pad4)*%
X154550000Y-94775000D03*
%TO.P,J1,5,Pin_5*%
%TO.N,unconnected-(J1-Pin_5-Pad5)*%
X155650000Y-97650000D03*
%TO.P,J1,6,Pin_6*%
%TO.N,unconnected-(J1-Pin_6-Pad6)*%
X155650000Y-96500000D03*
%TO.P,J1,7,Pin_7*%
%TO.N,unconnected-(J1-Pin_7-Pad7)*%
X155650000Y-95350000D03*
D11*
%TO.P,J1,MP,MountPin*%
%TO.N,unconnected-(J1-MountPin-PadMP)_1*%
X155650000Y-99000000D03*
X155650000Y-94000000D03*
%TD*%
D12*
%TO.P,J3,1,VTref*%
%TO.N,Net-(J2-Pin_1)*%
X152550000Y-112125000D03*
D13*
%TO.P,J3,2,SWDIO/TMS*%
%TO.N,/SWDIO*%
X152550000Y-110855000D03*
%TO.P,J3,3,GND*%
%TO.N,/GND*%
X153820000Y-112125000D03*
%TO.P,J3,4,SWCLK/TCK*%
%TO.N,/SWCLK*%
X153820000Y-110855000D03*
%TO.P,J3,5,GND*%
%TO.N,/GND*%
X155090000Y-112125000D03*
%TO.P,J3,6,SWO/TDO*%
%TO.N,/TX*%
X155090000Y-110855000D03*
%TO.P,J3,7,KEY*%
%TO.N,unconnected-(J3-KEY-Pad7)*%
X156360000Y-112125000D03*
%TO.P,J3,8,NC/TDI*%
%TO.N,/RX*%
X156360000Y-110855000D03*
%TO.P,J3,9,GNDDetect*%
%TO.N,/GND*%
X157630000Y-112125000D03*
%TO.P,J3,10,~{RESET}*%
%TO.N,/~{RESET}*%
X157630000Y-110855000D03*
%TD*%
D14*
%TO.N,/~{RESET}*%
X156250000Y-108550000D02*
X156250000Y-107050000D01*
X157630000Y-109930000D02*
X156250000Y-108550000D01*
X157630000Y-110855000D02*
X157630000Y-109930000D01*
%TD*%
%TA.AperFunction,Conductor*%
%TO.N,/GND*%
G36*
X159103487Y-104500892D02*
G01*
X159204153Y-104512235D01*
X159217792Y-104515348D01*
X159310082Y-104547641D01*
X159322686Y-104553711D01*
X159405470Y-104605728D01*
X159416412Y-104614454D01*
X159485545Y-104683587D01*
X159494271Y-104694529D01*
X159546286Y-104777310D01*
X159552359Y-104789920D01*
X159584650Y-104882205D01*
X159587764Y-104895849D01*
X159599107Y-104996512D01*
X159599500Y-105003510D01*
X159599500Y-106000005D01*
X159599500Y-106107322D01*
X159615231Y-106216726D01*
X159630047Y-106319775D01*
X159630048Y-106319779D01*
X159690516Y-106525713D01*
X159690517Y-106525714D01*
X159779676Y-106720947D01*
X159779680Y-106720953D01*
X159788268Y-106734316D01*
X159796762Y-106781391D01*
X159779886Y-106812299D01*
X159749500Y-106842686D01*
X159683607Y-106956814D01*
X159683606Y-106956817D01*
X159649501Y-107084101D01*
X159649500Y-107084109D01*
X159649500Y-107215890D01*
X159649501Y-107215898D01*
X159683606Y-107343182D01*
X159683607Y-107343185D01*
X159683608Y-107343186D01*
X159745460Y-107450317D01*
X159749501Y-107457315D01*
X159749504Y-107457319D01*
X159767991Y-107475806D01*
X159786297Y-107520000D01*
X159767991Y-107564194D01*
X159749504Y-107582680D01*
X159749501Y-107582684D01*
X159683607Y-107696814D01*
X159683606Y-107696817D01*
X159649501Y-107824101D01*
X159649500Y-107824109D01*
X159649500Y-107955890D01*
X159649501Y-107955898D01*
X159683606Y-108083182D01*
X159683607Y-108083185D01*
X159749501Y-108197315D01*
X159749504Y-108197319D01*
X159767991Y-108215806D01*
X159786297Y-108260000D01*
X159767991Y-108304194D01*
X159749504Y-108322680D01*
X159749501Y-108322684D01*
X159683607Y-108436814D01*
X159683606Y-108436817D01*
X159649501Y-108564101D01*
X159649500Y-108564109D01*
X159649500Y-108695890D01*
X159649501Y-108695898D01*
X159683606Y-108823182D01*
X159683607Y-108823185D01*
X159749501Y-108937315D01*
X159749504Y-108937319D01*
X159767991Y-108955806D01*
X159786297Y-109000000D01*
X159767991Y-109044194D01*
X159749504Y-109062680D01*
X159749501Y-109062684D01*
X159683607Y-109176814D01*
X159683606Y-109176817D01*
X159649501Y-109304101D01*
X159649500Y-109304109D01*
X159649500Y-109435890D01*
X159649501Y-109435898D01*
X159683606Y-109563182D01*
X159683607Y-109563185D01*
X159749501Y-109677315D01*
X159749504Y-109677319D01*
X159767991Y-109695806D01*
X159786297Y-109740000D01*
X159767991Y-109784194D01*
X159749504Y-109802680D01*
X159749501Y-109802684D01*
X159683607Y-109916814D01*
X159683606Y-109916817D01*
X159649501Y-110044101D01*
X159649500Y-110044109D01*
X159649500Y-110175890D01*
X159649501Y-110175898D01*
X159683606Y-110303182D01*
X159683607Y-110303185D01*
X159749501Y-110417315D01*
X159749504Y-110417319D01*
X159767991Y-110435806D01*
X159786297Y-110480000D01*
X159767991Y-110524194D01*
X159749504Y-110542680D01*
X159749501Y-110542684D01*
X159683607Y-110656814D01*
X159683606Y-110656817D01*
X159649501Y-110784101D01*
X159649500Y-110784109D01*
X159649500Y-110915890D01*
X159649501Y-110915898D01*
X159683606Y-111043182D01*
X159683607Y-111043185D01*
X159716554Y-111100250D01*
X159749500Y-111157314D01*
X159779884Y-111187698D01*
X159798190Y-111231891D01*
X159788269Y-111265680D01*
X159779681Y-111279043D01*
X159779678Y-111279049D01*
X159690515Y-111474289D01*
X159690515Y-111474290D01*
X159630046Y-111680229D01*
X159599500Y-111892680D01*
X159599500Y-112996489D01*
X159599107Y-113003487D01*
X159587764Y-113104150D01*
X159584650Y-113117794D01*
X159552359Y-113210079D01*
X159546286Y-113222689D01*
X159494271Y-113305470D01*
X159485545Y-113316412D01*
X159416412Y-113385545D01*
X159405470Y-113394271D01*
X159322689Y-113446286D01*
X159310079Y-113452359D01*
X159217794Y-113484650D01*
X159204150Y-113487764D01*
X159103488Y-113499107D01*
X159096490Y-113499500D01*
X151103510Y-113499500D01*
X151096512Y-113499107D01*
X150995849Y-113487764D01*
X150982205Y-113484650D01*
X150889920Y-113452359D01*
X150877310Y-113446286D01*
X150794529Y-113394271D01*
X150783587Y-113385545D01*
X150714454Y-113316412D01*
X150705728Y-113305470D01*
X150653713Y-113222689D01*
X150647641Y-113210082D01*
X150615348Y-113117792D01*
X150612235Y-113104150D01*
X150600893Y-113003487D01*
X150600500Y-112996489D01*
X150600500Y-111892683D01*
X150600500Y-111892680D01*
X150600500Y-111892678D01*
X150569953Y-111680227D01*
X150509483Y-111474286D01*
X150468193Y-111383875D01*
X150420322Y-111279050D01*
X150420319Y-111279044D01*
X150411732Y-111265684D01*
X150403237Y-111218609D01*
X150420114Y-111187699D01*
X150450500Y-111157314D01*
X150516392Y-111043186D01*
X150550500Y-110915892D01*
X150550500Y-110784108D01*
X150516392Y-110656814D01*
X150450500Y-110542686D01*
X150450498Y-110542684D01*
X150450496Y-110542681D01*
X150432009Y-110524195D01*
X150413702Y-110480001D01*
X150432007Y-110435807D01*
X150450496Y-110417318D01*
X150450500Y-110417314D01*
X150516392Y-110303186D01*
X150550500Y-110175892D01*
X150550500Y-110044108D01*
X150516392Y-109916814D01*
X150450500Y-109802686D01*
X150450498Y-109802684D01*
X150450496Y-109802681D01*
X150432009Y-109784195D01*
X150413702Y-109740001D01*
X150432007Y-109695807D01*
X150450496Y-109677318D01*
X150450500Y-109677314D01*
X150516392Y-109563186D01*
X150550500Y-109435892D01*
X150550500Y-109304108D01*
X150516392Y-109176814D01*
X150450500Y-109062686D01*
X150450498Y-109062684D01*
X150450496Y-109062681D01*
X150432009Y-109044195D01*
X150413702Y-109000001D01*
X150432007Y-108955807D01*
X150450496Y-108937318D01*
X150450500Y-108937314D01*
X150516392Y-108823186D01*
X150550500Y-108695892D01*
X150550500Y-108564108D01*
X150516392Y-108436814D01*
X150450500Y-108322686D01*
X150450498Y-108322684D01*
X150450496Y-108322681D01*
X150432009Y-108304195D01*
X150413702Y-108260001D01*
X150432007Y-108215807D01*
X150450496Y-108197318D01*
X150450500Y-108197314D01*
X150516392Y-108083186D01*
X150550500Y-107955892D01*
X150550500Y-107824108D01*
X150519071Y-107706812D01*
X150516393Y-107696817D01*
X150516392Y-107696814D01*
X150508846Y-107683744D01*
X150450500Y-107582686D01*
X150450498Y-107582684D01*
X150450496Y-107582681D01*
X150432009Y-107564195D01*
X150413702Y-107520001D01*
X150432007Y-107475807D01*
X150450496Y-107457318D01*
X150450500Y-107457314D01*
X150516392Y-107343186D01*
X150550500Y-107215892D01*
X150550500Y-107084108D01*
X150527251Y-106997339D01*
X150517163Y-106959690D01*
X150516840Y-106958487D01*
X150516392Y-106956814D01*
X150510485Y-106946583D01*
X151550000Y-106946583D01*
X151550000Y-107153416D01*
X151590349Y-107356272D01*
X151590350Y-107356275D01*
X151669499Y-107547356D01*
X151669503Y-107547364D01*
X151701377Y-107595067D01*
X152200000Y-107096444D01*
X152200000Y-107102661D01*
X152227259Y-107204394D01*
X152279920Y-107295606D01*
X152354394Y-107370080D01*
X152445606Y-107422741D01*
X152547339Y-107450000D01*
X152553554Y-107450000D01*
X152054932Y-107948621D01*
X152102633Y-107980495D01*
X152102643Y-107980500D01*
X152293724Y-108059649D01*
X152293727Y-108059650D01*
X152496583Y-108099999D01*
X152496584Y-108100000D01*
X152703416Y-108100000D01*
X152703416Y-108099999D01*
X152906272Y-108059650D01*
X152906275Y-108059649D01*
X153097356Y-107980500D01*
X153097366Y-107980495D01*
X153145067Y-107948621D01*
X152646446Y-107450000D01*
X152652661Y-107450000D01*
X152754394Y-107422741D01*
X152845606Y-107370080D01*
X152920080Y-107295606D01*
X152972741Y-107204394D01*
X153000000Y-107102661D01*
X153000000Y-107096446D01*
X153506436Y-107602883D01*
X153522669Y-107606950D01*
X153618189Y-107670775D01*
X153745672Y-107723580D01*
X153881007Y-107750500D01*
X154018993Y-107750500D01*
X154154328Y-107723580D01*
X154281811Y-107670775D01*
X154396542Y-107594114D01*
X154480806Y-107509850D01*
X154525000Y-107491544D01*
X154569194Y-107509850D01*
X154653458Y-107594114D01*
X154768189Y-107670775D01*
X154895672Y-107723580D01*
X155031007Y-107750500D01*
X155168993Y-107750500D01*
X155304328Y-107723580D01*
X155431811Y-107670775D01*
X155546542Y-107594114D01*
X155630806Y-107509850D01*
X155675000Y-107491544D01*
X155719194Y-107509850D01*
X155803458Y-107594114D01*
X155920742Y-107672481D01*
X155919786Y-107673910D01*
X155946804Y-107706812D01*
X155949500Y-107724972D01*
X155949500Y-108589567D01*
X155969978Y-108665986D01*
X155969978Y-108665988D01*
X156009541Y-108734512D01*
X156009544Y-108734516D01*
X157311194Y-110036165D01*
X157329500Y-110080359D01*
X157329500Y-110180027D01*
X157311194Y-110224221D01*
X157300499Y-110232156D01*
X157300742Y-110232519D01*
X157183458Y-110310885D01*
X157085885Y-110408458D01*
X157046967Y-110466704D01*
X157007193Y-110493280D01*
X156960277Y-110483948D01*
X156943033Y-110466704D01*
X156904114Y-110408458D01*
X156806541Y-110310885D01*
X156691813Y-110234226D01*
X156691811Y-110234225D01*
X156564326Y-110181419D01*
X156428993Y-110154500D01*
X156291007Y-110154500D01*
X156155673Y-110181419D01*
X156155672Y-110181419D01*
X156028188Y-110234225D01*
X156028186Y-110234226D01*
X155913458Y-110310885D01*
X155815885Y-110408458D01*
X155776967Y-110466704D01*
X155737193Y-110493280D01*
X155690277Y-110483948D01*
X155673033Y-110466704D01*
X155634114Y-110408458D01*
X155536541Y-110310885D01*
X155421813Y-110234226D01*
X155421811Y-110234225D01*
X155294326Y-110181419D01*
X155158993Y-110154500D01*
X155021007Y-110154500D01*
X154885673Y-110181419D01*
X154885672Y-110181419D01*
X154758188Y-110234225D01*
X154758186Y-110234226D01*
X154643458Y-110310885D01*
X154545885Y-110408458D01*
X154506967Y-110466704D01*
X154467193Y-110493280D01*
X154420277Y-110483948D01*
X154403033Y-110466704D01*
X154364114Y-110408458D01*
X154266541Y-110310885D01*
X154151813Y-110234226D01*
X154151811Y-110234225D01*
X154024326Y-110181419D01*
X153888993Y-110154500D01*
X153751007Y-110154500D01*
X153615673Y-110181419D01*
X153615672Y-110181419D01*
X153488188Y-110234225D01*
X153488186Y-110234226D01*
X153373458Y-110310885D01*
X153275885Y-110408458D01*
X153236967Y-110466704D01*
X153197193Y-110493280D01*
X153150277Y-110483948D01*
X153133033Y-110466704D01*
X153094114Y-110408458D01*
X152996541Y-110310885D01*
X152881813Y-110234226D01*
X152881811Y-110234225D01*
X152754326Y-110181419D01*
X152618993Y-110154500D01*
X152481007Y-110154500D01*
X152345673Y-110181419D01*
X152345672Y-110181419D01*
X152218188Y-110234225D01*
X152218186Y-110234226D01*
X152103458Y-110310885D01*
X152005885Y-110408458D01*
X151929226Y-110523186D01*
X151929225Y-110523188D01*
X151876419Y-110650672D01*
X151876419Y-110650673D01*
X151849500Y-110786006D01*
X151849500Y-110923993D01*
X151876419Y-111059326D01*
X151876419Y-111059327D01*
X151929225Y-111186811D01*
X151929226Y-111186813D01*
X152005885Y-111301541D01*
X152029805Y-111325461D01*
X152048111Y-111369655D01*
X152029805Y-111413849D01*
X151997805Y-111430954D01*
X151971768Y-111436133D01*
X151971767Y-111436133D01*
X151905447Y-111480447D01*
X151861133Y-111546767D01*
X151861132Y-111546769D01*
X151849500Y-111605251D01*
X151849500Y-112644748D01*
X151861132Y-112703230D01*
X151861133Y-112703232D01*
X151905447Y-112769552D01*
X151971767Y-112813866D01*
X151971769Y-112813867D01*
X152030252Y-112825500D01*
X153069749Y-112825500D01*
X153072805Y-112825199D01*
X153072989Y-112827069D01*
X153114335Y-112835260D01*
X153123846Y-112843060D01*
X153182537Y-112901751D01*
X153346319Y-113011187D01*
X153346321Y-113011188D01*
X153528302Y-113086568D01*
X153528310Y-113086570D01*
X153569999Y-113094863D01*
X153570000Y-113094863D01*
X154070000Y-113094863D01*
X154111689Y-113086570D01*
X154111697Y-113086568D01*
X154293676Y-113011189D01*
X154420276Y-112926597D01*
X154467193Y-112917265D01*
X154489724Y-112926597D01*
X154616323Y-113011189D01*
X154798302Y-113086568D01*
X154798310Y-113086570D01*
X154840000Y-113094863D01*
X154840000Y-112375000D01*
X154070000Y-112375000D01*
X154070000Y-113094863D01*
X153570000Y-113094863D01*
X153570000Y-112334618D01*
X153620446Y-112385064D01*
X153694555Y-112427851D01*
X153777213Y-112450000D01*
X153862787Y-112450000D01*
X153945445Y-112427851D01*
X154019554Y-112385064D01*
X154080064Y-112324554D01*
X154122851Y-112250445D01*
X154145000Y-112167787D01*
X154145000Y-112082213D01*
X154122851Y-111999555D01*
X154080064Y-111925446D01*
X154029618Y-111875000D01*
X154880382Y-111875000D01*
X154829936Y-111925446D01*
X154787149Y-111999555D01*
X154765000Y-112082213D01*
X154765000Y-112167787D01*
X154787149Y-112250445D01*
X154829936Y-112324554D01*
X154890446Y-112385064D01*
X154964555Y-112427851D01*
X155047213Y-112450000D01*
X155132787Y-112450000D01*
X155215445Y-112427851D01*
X155289554Y-112385064D01*
X155340000Y-112334618D01*
X155340000Y-113094863D01*
X155381689Y-113086570D01*
X155381697Y-113086568D01*
X155563678Y-113011188D01*
X155563680Y-113011187D01*
X155727462Y-112901751D01*
X155866749Y-112762464D01*
X155866754Y-112762458D01*
X155889565Y-112728319D01*
X155929338Y-112701742D01*
X155976254Y-112711074D01*
X155976255Y-112711074D01*
X156028185Y-112745773D01*
X156028187Y-112745773D01*
X156028189Y-112745775D01*
X156155672Y-112798580D01*
X156291007Y-112825500D01*
X156428993Y-112825500D01*
X156564328Y-112798580D01*
X156691811Y-112745775D01*
X156691814Y-112745772D01*
X156691816Y-112745772D01*
X156708405Y-112734686D01*
X156743743Y-112711074D01*
X156790658Y-112701742D01*
X156830432Y-112728317D01*
X156853246Y-112762459D01*
X156853250Y-112762464D01*
X156992537Y-112901751D01*
X157156319Y-113011187D01*
X157156321Y-113011188D01*
X157338302Y-113086568D01*
X157338310Y-113086570D01*
X157379999Y-113094863D01*
X157380000Y-113094863D01*
X157880000Y-113094863D01*
X157921689Y-113086570D01*
X157921697Y-113086568D01*
X158103678Y-113011188D01*
X158103680Y-113011187D01*
X158267462Y-112901751D01*
X158406751Y-112762462D01*
X158516187Y-112598680D01*
X158516188Y-112598678D01*
X158591568Y-112416697D01*
X158591570Y-112416689D01*
X158599863Y-112375000D01*
X157880000Y-112375000D01*
X157880000Y-113094863D01*
X157380000Y-113094863D01*
X157380000Y-112334618D01*
X157430446Y-112385064D01*
X157504555Y-112427851D01*
X157587213Y-112450000D01*
X157672787Y-112450000D01*
X157755445Y-112427851D01*
X157829554Y-112385064D01*
X157890064Y-112324554D01*
X157932851Y-112250445D01*
X157955000Y-112167787D01*
X157955000Y-112082213D01*
X157932851Y-111999555D01*
X157890064Y-111925446D01*
X157839618Y-111875000D01*
X158599863Y-111875000D01*
X158599863Y-111874999D01*
X158591570Y-111833310D01*
X158591568Y-111833302D01*
X158516188Y-111651321D01*
X158516187Y-111651319D01*
X158406751Y-111487537D01*
X158267464Y-111348250D01*
X158267459Y-111348246D01*
X158233317Y-111325432D01*
X158206742Y-111285658D01*
X158216074Y-111238743D01*
X158246515Y-111193187D01*
X158250772Y-111186816D01*
X158250772Y-111186814D01*
X158250775Y-111186811D01*
X158303580Y-111059328D01*
X158330500Y-110923993D01*
X158330500Y-110786007D01*
X158303580Y-110650672D01*
X158250775Y-110523189D01*
X158174114Y-110408458D01*
X158076542Y-110310886D01*
X158065018Y-110303186D01*
X157959258Y-110232519D01*
X157960205Y-110231101D01*
X157933182Y-110198139D01*
X157930500Y-110180027D01*
X157930500Y-109890439D01*
X157930499Y-109890433D01*
X157925158Y-109870501D01*
X157925158Y-109870500D01*
X157910023Y-109814015D01*
X157910019Y-109814006D01*
X157870462Y-109745492D01*
X157870455Y-109745483D01*
X156568806Y-108443834D01*
X156550500Y-108399640D01*
X156550500Y-107724972D01*
X156552960Y-107719031D01*
X156551712Y-107712723D01*
X156560445Y-107700962D01*
X156568806Y-107680778D01*
X156578324Y-107672974D01*
X156581310Y-107670982D01*
X156581811Y-107670775D01*
X156677376Y-107606919D01*
X156677736Y-107606848D01*
X156693562Y-107602883D01*
X157200000Y-107096445D01*
X157200000Y-107102661D01*
X157227259Y-107204394D01*
X157279920Y-107295606D01*
X157354394Y-107370080D01*
X157445606Y-107422741D01*
X157547339Y-107450000D01*
X157553554Y-107450000D01*
X157054932Y-107948621D01*
X157102633Y-107980495D01*
X157102643Y-107980500D01*
X157293724Y-108059649D01*
X157293727Y-108059650D01*
X157496583Y-108099999D01*
X157496584Y-108100000D01*
X157703416Y-108100000D01*
X157703416Y-108099999D01*
X157906272Y-108059650D01*
X157906275Y-108059649D01*
X158097356Y-107980500D01*
X158097366Y-107980495D01*
X158145067Y-107948621D01*
X157646446Y-107450000D01*
X157652661Y-107450000D01*
X157754394Y-107422741D01*
X157845606Y-107370080D01*
X157920080Y-107295606D01*
X157972741Y-107204394D01*
X158000000Y-107102661D01*
X158000000Y-107096446D01*
X158498621Y-107595067D01*
X158530495Y-107547366D01*
X158530500Y-107547356D01*
X158609649Y-107356275D01*
X158609650Y-107356272D01*
X158649999Y-107153416D01*
X158650000Y-107153416D01*
X158650000Y-106946584D01*
X158649999Y-106946583D01*
X158609650Y-106743727D01*
X158609649Y-106743724D01*
X158530500Y-106552643D01*
X158530495Y-106552633D01*
X158498621Y-106504932D01*
X158000000Y-107003553D01*
X158000000Y-106997339D01*
X157972741Y-106895606D01*
X157920080Y-106804394D01*
X157845606Y-106729920D01*
X157754394Y-106677259D01*
X157652661Y-106650000D01*
X157646444Y-106650000D01*
X158145067Y-106151377D01*
X158097364Y-106119503D01*
X158097356Y-106119499D01*
X157906274Y-106040350D01*
X157875305Y-106034189D01*
X157835532Y-106007611D01*
X157825000Y-105972890D01*
X157825000Y-105851509D01*
X157824999Y-105851508D01*
X157786570Y-105658310D01*
X157786568Y-105658302D01*
X157711191Y-105476327D01*
X157711186Y-105476317D01*
X157687572Y-105440979D01*
X157178553Y-105949999D01*
X157178553Y-105950000D01*
X157713125Y-106484572D01*
X157731431Y-106528766D01*
X157713125Y-106572960D01*
X157636085Y-106650000D01*
X157547339Y-106650000D01*
X157445606Y-106677259D01*
X157354394Y-106729920D01*
X157279920Y-106804394D01*
X157227259Y-106895606D01*
X157200000Y-106997339D01*
X157200000Y-107003554D01*
X156676517Y-106480071D01*
X156658211Y-106435877D01*
X156676517Y-106391683D01*
X156770465Y-106297734D01*
X156778922Y-106300000D01*
X156871078Y-106300000D01*
X156960095Y-106276148D01*
X157039905Y-106230070D01*
X157105070Y-106164905D01*
X157151148Y-106085095D01*
X157175000Y-105996078D01*
X157175000Y-105903922D01*
X157151148Y-105814905D01*
X157105070Y-105735095D01*
X157039905Y-105669930D01*
X156960095Y-105623852D01*
X156871078Y-105600000D01*
X156778922Y-105600000D01*
X156689905Y-105623852D01*
X156610095Y-105669930D01*
X156544930Y-105735095D01*
X156498852Y-105814905D01*
X156475000Y-105903922D01*
X156475000Y-105953553D01*
X156382213Y-105860766D01*
X156365108Y-105828765D01*
X156348580Y-105745673D01*
X156348580Y-105745672D01*
X156344199Y-105735095D01*
X156295775Y-105618189D01*
X156219114Y-105503458D01*
X156121542Y-105405886D01*
X156121541Y-105405885D01*
X156006813Y-105329226D01*
X156006811Y-105329225D01*
X155879326Y-105276419D01*
X155743993Y-105249500D01*
X155606007Y-105249500D01*
X155470673Y-105276419D01*
X155470672Y-105276419D01*
X155343188Y-105329225D01*
X155343186Y-105329226D01*
X155228458Y-105405885D01*
X155228456Y-105405887D01*
X155144194Y-105490150D01*
X155100000Y-105508456D01*
X155055806Y-105490150D01*
X154971541Y-105405885D01*
X154856813Y-105329226D01*
X154856811Y-105329225D01*
X154729326Y-105276419D01*
X154593993Y-105249500D01*
X154456007Y-105249500D01*
X154320673Y-105276419D01*
X154320672Y-105276419D01*
X154193188Y-105329225D01*
X154193186Y-105329226D01*
X154078458Y-105405885D01*
X154078456Y-105405887D01*
X153994194Y-105490150D01*
X153950000Y-105508456D01*
X153905806Y-105490150D01*
X153821541Y-105405885D01*
X153706813Y-105329226D01*
X153706811Y-105329225D01*
X153579326Y-105276419D01*
X153443993Y-105249500D01*
X153306007Y-105249500D01*
X153170673Y-105276419D01*
X153170672Y-105276419D01*
X153043188Y-105329225D01*
X153043186Y-105329226D01*
X152928458Y-105405885D01*
X152830885Y-105503458D01*
X152754226Y-105618186D01*
X152754225Y-105618188D01*
X152701419Y-105745672D01*
X152701419Y-105745673D01*
X152674500Y-105881006D01*
X152674500Y-105937500D01*
X152656194Y-105981694D01*
X152612000Y-106000000D01*
X152496584Y-106000000D01*
X152293727Y-106040349D01*
X152293724Y-106040350D01*
X152102640Y-106119500D01*
X152102635Y-106119503D01*
X152054931Y-106151377D01*
X152553554Y-106650000D01*
X152547339Y-106650000D01*
X152445606Y-106677259D01*
X152354394Y-106729920D01*
X152279920Y-106804394D01*
X152227259Y-106895606D01*
X152200000Y-106997339D01*
X152200000Y-107003554D01*
X151701377Y-106504931D01*
X151669503Y-106552635D01*
X151669500Y-106552640D01*
X151590350Y-106743724D01*
X151590349Y-106743727D01*
X151550000Y-106946583D01*
X150510485Y-106946583D01*
X150450500Y-106842686D01*
X150450498Y-106842684D01*
X150450495Y-106842680D01*
X150420115Y-106812300D01*
X150401809Y-106768106D01*
X150411732Y-106734315D01*
X150420322Y-106720949D01*
X150509485Y-106525710D01*
X150569954Y-106319768D01*
X150598748Y-106119503D01*
X150600500Y-106107319D01*
X150600500Y-105087426D01*
X156315979Y-105087426D01*
X156824999Y-105596446D01*
X157334020Y-105087425D01*
X157298680Y-105063812D01*
X157298678Y-105063811D01*
X157116697Y-104988431D01*
X157116689Y-104988429D01*
X156923491Y-104950000D01*
X156726509Y-104950000D01*
X156533310Y-104988429D01*
X156533302Y-104988431D01*
X156351328Y-105063807D01*
X156351320Y-105063811D01*
X156315979Y-105087426D01*
X150600500Y-105087426D01*
X150600500Y-105003510D01*
X150600893Y-104996512D01*
X150606134Y-104950000D01*
X150612235Y-104895844D01*
X150615349Y-104882205D01*
X150647643Y-104789913D01*
X150653709Y-104777317D01*
X150705731Y-104694524D01*
X150714450Y-104683591D01*
X150783591Y-104614450D01*
X150794524Y-104605731D01*
X150877317Y-104553709D01*
X150889913Y-104547643D01*
X150982209Y-104515348D01*
X150995844Y-104512235D01*
X151096512Y-104500892D01*
X151103510Y-104500500D01*
X151165892Y-104500500D01*
X159034108Y-104500500D01*
X159096490Y-104500500D01*
X159103487Y-104500892D01*
G37*
%TD.AperFunction*%
%TD*%
M02*
